HIERARCHY
ROOT Hips
{
	OFFSET 0.00000 0.00000 0.00000
	CHANNELS 6 Xposition Yposition Zposition Zrotation Yrotation Xrotation 
	JOINT LHipJoint
	{
		OFFSET 0 0 0
		CHANNELS 3 Zrotation Yrotation Xrotation
		JOINT LeftHip
		{
			OFFSET 1.29432 -1.88279 0.59910
			CHANNELS 3 Zrotation Yrotation Xrotation
			JOINT LeftKnee
			{
				OFFSET 2.63039 -7.22694 0.00000
				CHANNELS 3 Zrotation Yrotation Xrotation
				JOINT LeftAnkle
				{
					OFFSET 2.70674 -7.43672 0.00000
					CHANNELS 3 Zrotation Yrotation Xrotation
					JOINT LeftToe
					{
						OFFSET 0.15066 -0.41394 2.09027
						CHANNELS 3 Zrotation Yrotation Xrotation
						End Site
						{
							OFFSET 0.00000 -0.00000 1.07518
						}
					}
				}
			}
		}
	}
	JOINT RHipJoint
	{
		OFFSET 0 0 0
		CHANNELS 3 Zrotation Yrotation Xrotation
		JOINT RightHip
		{
			OFFSET -1.37068 -1.88279 0.59910
			CHANNELS 3 Zrotation Yrotation Xrotation
			JOINT RightKnee
			{
				OFFSET -2.57023 -7.06166 0.00000
				CHANNELS 3 Zrotation Yrotation Xrotation
				JOINT RightAnkle
				{
					OFFSET -2.76461 -7.59570 0.00000
					CHANNELS 3 Zrotation Yrotation Xrotation
					JOINT RightToe
					{
						OFFSET -0.24175 -0.64785 2.19719
						CHANNELS 3 Zrotation Yrotation Xrotation
						End Site
						{
							OFFSET -0.00000 -0.00000 1.14803
						}
					}
				}
			}
		}
	}
	JOINT lowerback
	{
		OFFSET 0 0 0
		CHANNELS 3 Zrotation Yrotation Xrotation
		JOINT Chest
		{
			OFFSET -0.03138 2.03983 -0.23106
			CHANNELS 3 Zrotation Yrotation Xrotation
			JOINT Chest2
			{
				OFFSET -0.00325 2.06238 -0.06878
				CHANNELS 3 Zrotation Yrotation Xrotation
				JOINT lowerneck
				{
					OFFSET 0 0 0
					CHANNELS 3 Zrotation Yrotation Xrotation
					JOINT Neck
					{
						OFFSET -0.00002 1.75318 0.18090
						CHANNELS 3 Zrotation Yrotation Xrotation
						JOINT Head
						{
							OFFSET 0.08806 1.75856 -0.25387
							CHANNELS 3 Zrotation Yrotation Xrotation
							End Site
							{
								OFFSET 0.02554 1.78597 -0.10684
							}
						}
					}
				}
				JOINT LeftCollar
				{
					OFFSET 0 0 0
					CHANNELS 3 Zrotation Yrotation Xrotation
					JOINT LeftShoulder
					{
						OFFSET 3.09657 1.33597 -0.04414
CHANNELS 3 Zrotation Xrotation Yrotation
						JOINT LeftElbow
						{
OFFSET 0 -5.342980 -0.000000
CHANNELS 3 Zrotation Xrotation Yrotation
							JOINT LeftWrist
							{
OFFSET 0 -3.672620 -0.000000
CHANNELS 3 Zrotation Xrotation Yrotation
								JOINT lhand
								{
									OFFSET 0 0 0
CHANNELS 3 Zrotation Xrotation Yrotation
									JOINT LFingers
									{
OFFSET 0 -0.599300 -0.000000
CHANNELS 3 Zrotation Xrotation Yrotation
										End Site
										{
OFFSET 0 -0.483170 -0.000000
										}
									}
								}
								JOINT LThumb
								{
OFFSET 0 0.000000 0.000000
CHANNELS 3 Zrotation Xrotation Yrotation
									End Site
									{
OFFSET 0 -0.490550 0.490550
									}
								}
							}
						}
					}
				}
				JOINT RightCollar
				{
					OFFSET 0 0 0
					CHANNELS 3 Zrotation Yrotation Xrotation
					JOINT RightShoulder
					{
						OFFSET -3.16460 1.32273 -0.23382
CHANNELS 3 Zrotation Xrotation Yrotation
						JOINT RightElbow
						{
OFFSET 0 -5.549670 0.033480
CHANNELS 3 Zrotation Xrotation Yrotation
							JOINT RightWrist
							{
OFFSET 0 -3.694010 0.000000
CHANNELS 3 Zrotation Xrotation Yrotation
								JOINT rhand
								{
									OFFSET 0 0 0
CHANNELS 3 Zrotation Xrotation Yrotation
									JOINT RFingers
									{
OFFSET 0 -0.638110 0.000000
CHANNELS 3 Zrotation Xrotation Yrotation
										End Site
										{
OFFSET 0 -0.514460 0.000000
										}
									}
								}
								JOINT RThumb
								{
OFFSET 0 0.000000 0.000000
CHANNELS 3 Zrotation Xrotation Yrotation
									End Site
									{
OFFSET 0 -0.522320 0.522320
									}
								}
							}
						}
					}
				}
			}
		}
	}
}
MOTION
Frames: 7
Frame Time: .0083333
16.6336 18.6925 16.2360 176.9310 -5.2397 -175.6270 0.0000 0.0000 0.0000 -21.5174 1.2030 -2.8912 7.5570 15.7835 50.9507 1.4211 2.9556 21.7670 0.0902 -1.9376 -5.3331 0.0000 0.0000 0.0000 19.7307 11.2850 -19.2887 -3.1905 -10.9973 32.2707 -0.2956 -5.3953 -13.6738 -0.0594 -1.5720 4.3242 -3.3009 -2.1532 0.4048 1.3079 -2.8988 1.2603 3.1654 -1.5042 1.2988 6.5761 4.3224 -8.2741 0.7557 5.1306 3.8081 -0.6333 2.7294 2.8331 0.0000 -0.0000 0.0000 0.347 -14.3471 -4.2356 17.7507 -27.8367 4.4322 -0.2197 -41.6 -32.6705 0.0 0.0 0.0 -7.1250 0.0 0.0 -36.3285 58.7426 13.307 0.0000 -0.0000 0.0000 0.7785 11.2147 -20.6841 -8.6710 -14.6345 -1.1155 -19.4853 32.3062 -21.3278 0.0 0.0 0.0 7.1250 0.0 -0.0 5.8191 7.578 5.0276
16.6565 18.6903 16.0534 177.2970 -5.3946 -176.2410 0.0000 0.0000 0.0000 -20.8309 1.2803 -3.5838 8.0930 16.1873 52.8971 1.1894 3.2392 19.7957 0.1071 -2.1105 -5.8113 0.0000 0.0000 0.0000 20.5747 11.1032 -17.6186 -3.1250 -10.8946 31.9254 -0.3472 -5.4709 -14.4886 -0.1681 -2.6411 7.2810 -3.1741 -1.9872 0.8740 1.3327 -2.6979 1.3958 3.1381 -1.4051 1.1538 7.0349 4.3880 -7.8444 0.7112 5.2256 3.5442 -0.7330 2.7801 2.6831 0.0000 -0.0000 0.0000 -0.3902 -12.807 -2.2167 16.8265 -26.6285 4.0093 -5.3429 -43.7095 -32.0433 0.0 0.0 0.0 -7.1250 0.0 0.0 -40.5279 57.1294 13.5381 0.0000 -0.0000 0.0000 1.0455 11.1539 -19.5519 -8.8572 -14.9325 -1.163 -19.3634 31.5312 -20.771 0.0 0.0 0.0 7.1250 0.0 -0.0 5.8569 8.172 4.9917
16.6613 18.6940 15.8794 177.6790 -5.3012 -176.5140 0.0000 0.0000 0.0000 -20.3041 1.3142 -4.7800 8.6532 16.5793 54.8828 0.9158 3.7902 17.2077 0.2212 -3.0276 -8.3557 0.0000 0.0000 0.0000 21.2664 11.0978 -16.3703 -3.0462 -10.7694 31.5062 -0.4000 -5.3406 -15.1047 -0.2728 -3.3599 9.2823 -2.4406 -1.7180 1.5603 1.0793 -2.3463 1.1685 2.4973 -1.2051 0.4667 7.6008 4.5710 -7.6107 0.8076 5.1435 3.7076 -0.8108 2.6462 2.7141 0.0000 -0.0000 0.0000 -0.6981 -10.7575 0.3512 15.9197 -25.4116 3.6114 -7.193 -43.3108 -31.1204 0.0 0.0 0.0 -7.1250 0.0 0.0 -41.3490 56.03 12.7207 0.0000 -0.0000 0.0000 1.6471 11.4205 -18.6444 -9.0232 -15.1974 -1.2062 -20.3056 31.4444 -20.2269 0.0 0.0 0.0 7.1250 0.0 -0.0 5.2149 8.6033 4.3949
16.6585 18.7149 15.7077 177.7150 -4.9784 -176.6540 0.0000 0.0000 0.0000 -20.2716 1.2596 -6.1856 9.2186 16.9464 56.8432 0.6457 4.7348 14.3148 0.2816 -3.4131 -9.4311 0.0000 0.0000 0.0000 21.5190 10.8660 -15.3694 -2.9647 -10.6376 31.0673 -0.4372 -5.0450 -15.3638 -0.3249 -3.6635 10.1317 -2.1041 -1.4086 1.0502 0.7936 -1.9304 1.7562 1.9881 -1.0151 1.3081 7.9634 4.6964 -7.9529 0.8460 5.2263 3.2660 -0.8544 2.6716 2.6433 0.0000 0.0000 0.0000 -0.9564 -10.2274 4.3134 14.7381 -23.78 3.1196 -8.7028 -40.756 -29.6829 0.0 0.0 0.0 -7.1250 0.0 0.0 -41.4206 54.6181 11.2272 0.0000 0.0000 0.0000 1.9951 10.2663 -17.8393 -9.0835 -15.2934 -1.2221 -21.3657 31.409 -20.5946 0.0 0.0 0.0 7.1250 0.0 -0.0 4.5644 8.0631 3.8918
16.6604 18.7426 15.5342 177.7400 -4.4386 -176.7840 0.0000 0.0000 0.0000 -20.2666 1.1522 -7.6081 9.7914 17.2909 58.7889 0.4032 5.3698 11.3554 0.2206 -3.0232 -8.3432 0.0000 0.0000 0.0000 21.7669 10.6804 -14.3833 -2.8953 -10.5236 30.6893 -0.4830 -4.6256 -15.6400 -0.3568 -3.8376 10.6203 -2.0430 -1.0763 1.0626 0.6412 -1.4867 1.8174 1.7987 -0.7927 1.3356 8.2522 4.7061 -7.4329 0.8134 5.2658 2.8837 -0.9266 2.6774 2.4305 0.0000 -0.0000 0.0000 -1.3091 -8.5707 8.0167 13.9087 -22.6041 2.7929 -6.6866 -36.2661 -29.2003 0.0 0.0 0.0 -7.1250 0.0 0.0 -39.2065 54.6272 10.4773 0.0000 -0.0000 0.0000 2.143 10.069 -16.3864 -9.2612 -15.5757 -1.2693 -21.6449 30.2623 -21.621 0.0 0.0 0.0 7.1250 0.0 -0.0 4.4747 6.9441 3.9131
16.6626 18.7593 15.3652 177.9870 -3.8095 -176.6650 0.0000 0.0000 0.0000 -19.9315 1.1272 -9.4032 10.3511 17.6026 60.6554 0.2419 5.7930 9.0514 0.2589 -3.2735 -9.0410 0.0000 0.0000 0.0000 22.2312 10.6610 -13.7527 -2.8465 -10.4423 30.4214 -0.5163 -4.3783 -15.8825 -0.3159 -3.6130 9.9905 -1.9153 -0.6677 1.1916 0.6338 -0.9290 1.2886 1.7275 -0.4932 0.6927 8.6100 4.5409 -5.8135 0.6469 5.2073 2.5308 -1.0784 2.6365 2.0325 0.0000 0.0000 0.0000 -1.6868 -5.5458 10.5185 13.5315 -22.0609 2.6496 -13.4789 -36.5377 -27.1913 0.0 0.0 0.0 -7.1250 0.0 0.0 -43.4937 51.8214 8.6752 0.0000 0.0000 0.0000 2.2805 10.8787 -14.508 -9.6138 -16.1332 -1.3657 -21.2963 28.7144 -21.7262 0.0 0.0 0.0 7.1250 0.0 -0.0 4.7042 6.8893 4.1203
16.6644 18.7607 15.2101 178.0830 -3.3107 -176.3090 0.0000 0.0000 0.0000 -19.7059 1.0827 -11.4452 10.8444 17.8581 62.2752 0.1403 6.4039 7.4975 0.4286 -4.2017 -11.6447 0.0000 0.0000 0.0000 22.4834 10.7273 -13.5361 -2.8181 -10.3946 30.2643 -0.5114 -4.4361 -15.8618 -0.1976 -2.8626 7.8963 -2.0274 -0.7859 1.1919 0.9475 -1.1066 1.7767 2.1080 -0.6037 1.2095 7.7265 5.1858 -8.5915 0.7546 5.8491 3.3855 -0.7931 2.9814 2.8214 -0.0000 0.0000 0.0000 -2.5698 -5.0471 14.937 13.1460 -21.5008 2.5066 -14.9352 -34.1357 -26.5686 0.0 0.0 0.0 -7.1250 0.0 0.0 -44.2196 51.0939 7.9767 -0.0000 0.0000 0.0000 1.22 9.0063 -11.5379 -9.7562 -16.3573 -1.4055 -19.9393 28.4749 -20.3262 0.0 0.0 0.0 7.1250 0.0 -0.0 5.4571 8.5521 4.6064
